<svg width="29" height="28" viewBox="0 0 29 28" fill="none" xmlns="http://www.w3.org/2000/svg">
<path fill-rule="evenodd" clip-rule="evenodd" d="M18.9605 3.49675C22.8025 7.33872 23.0894 13.4052 19.8501 17.6737L28.1976 26.0213L26.219 27.9998L17.8925 19.6733C13.6157 23.0661 7.42643 22.8282 3.52775 18.9295C-0.673017 14.7288 -0.623664 7.86863 3.63799 3.60698C7.89963 -0.654669 14.7598 -0.704023 18.9605 3.49675ZM18.1691 4.28817C21.939 8.05809 21.8947 14.2146 18.0702 18.0392C14.2456 21.8637 8.0891 21.908 4.31918 18.1381C0.549256 14.3682 0.593548 8.21165 4.4181 4.3871C8.24266 0.562542 14.3992 0.518251 18.1691 4.28817Z" fill="#2B4074"/>
</svg>
